{
    "asset": {
        "copyright": "(C)2020 syoyo",
        "generator": "maya2glTF master d293e09",
        "version": "2.0"
    },
    "scenes": [
        {
            "nodes": [
                0
            ]
        }
    ],
    "scene": 0,
    "nodes": [
        {
            "name": "JpGirl_rig_GRP",
            "children": [
                217,
                1
            ]
        },
        {
            "name": "jpGirl_SkeletonGroup",
            "children": [
                2
            ]
        },
        {
            "name": "World_root",
            "children": [
                3
            ]
        },
        {
            "name": "root:SSC",
            "children": [
                4
            ]
        },
        {
            "name": "root",
            "children": [
                5
            ]
        },
        {
            "name": "hip:SSC",
            "children": [
                6
            ],
            "translation": [
                0.0,
                95.3000030517578,
                -2.5
            ]
        },
        {
            "name": "hip",
            "children": [
                7
            ],
            "rotation": [
                0.7019110321998596,
                0.7019110321998596,
                0.08556213974952698,
                -0.08556213974952698
            ]
        },
        {
            "name": "spine:SSC",
            "children": [
                8
            ],
            "translation": [
                12.149999618530274,
                0.0,
                0.0
            ]
        },
        {
            "name": "spine",
            "children": [
                9
            ],
            "rotation": [
                0.0,
                -0.11146893352270128,
                0.0,
                0.9937679171562196
            ]
        },
        {
            "name": "spine1:SSC",
            "children": [
                10
            ],
            "translation": [
                7.429999828338623,
                0.0,
                0.0
            ]
        },
        {
            "name": "spine1",
            "children": [
                11
            ],
            "rotation": [
                0.0,
                -0.06932120025157929,
                0.0,
                0.99759441614151
            ]
        },
        {
            "name": "spine2:SSC",
            "children": [
                12
            ],
            "translation": [
                6.699999809265137,
                0.0,
                0.0
            ]
        },
        {
            "name": "spine2",
            "children": [
                13
            ],
            "rotation": [
                0.0,
                -0.05102870985865593,
                0.0,
                0.9986971616744996
            ]
        },
        {
            "name": "spine3:SSC",
            "children": [
                14
            ],
            "translation": [
                9.270000457763672,
                0.0,
                0.0
            ]
        },
        {
            "name": "spine3",
            "children": [
                15
            ],
            "rotation": [
                0.0,
                0.07497872412204743,
                0.0,
                0.9971851110458374
            ]
        },
        {
            "name": "neck:SSC",
            "children": [
                16
            ],
            "translation": [
                11.600000381469729,
                0.0,
                0.0
            ]
        },
        {
            "name": "neck",
            "children": [
                17
            ],
            "rotation": [
                0.0,
                0.1322563886642456,
                0.0,
                0.9912155270576476
            ]
        },
        {
            "name": "neck1:SSC",
            "children": [
                18
            ],
            "translation": [
                4.71999979019165,
                0.0,
                0.0
            ]
        },
        {
            "name": "neck1",
            "children": [
                19
            ]
        },
        {
            "name": "head:SSC",
            "children": [
                20
            ],
            "translation": [
                5.699999809265137,
                0.0,
                0.0
            ]
        },
        {
            "name": "head",
            "children": [
                21
            ],
            "rotation": [
                0.0,
                -0.09410831332206726,
                0.0,
                0.995561957359314
            ]
        },
        {
            "name": "hair:SSC",
            "children": [
                22
            ],
            "translation": [
                0.2066322565078735,
                0.0,
                0.6250982284545898
            ]
        },
        {
            "name": "hair",
            "children": [
                209,
                201,
                179,
                157,
                135,
                113,
                91,
                69,
                47,
                39,
                23
            ],
            "rotation": [
                -0.7071067690849304,
                -0.00011642999743344262,
                -0.00011642999743344262,
                0.7071067690849304
            ]
        },
        {
            "name": "frontHairDA:SSC",
            "children": [
                24
            ],
            "translation": [
                12.201967239379885,
                8.292685508728028,
                -3.178431510925293
            ]
        },
        {
            "name": "frontHairDA",
            "children": [
                25
            ],
            "rotation": [
                -0.17888346314430238,
                -0.947288691997528,
                0.1896069049835205,
                -0.18626350164413453
            ]
        },
        {
            "name": "frontHairDB:SSC",
            "children": [
                26
            ],
            "translation": [
                2.2202818393707277,
                0.0,
                0.0
            ]
        },
        {
            "name": "frontHairDB",
            "children": [
                27
            ],
            "rotation": [
                -0.004196492023766041,
                -0.012030861340463162,
                -0.06773879379034043,
                0.9976217150688173
            ]
        },
        {
            "name": "frontHairDC:SSC",
            "children": [
                28
            ],
            "translation": [
                2.1408016681671144,
                0.0,
                0.0
            ]
        },
        {
            "name": "frontHairDC",
            "children": [
                29
            ],
            "rotation": [
                0.00015532399993389845,
                -0.015973076224327089,
                -0.13062530755996705,
                0.9913030862808228
            ]
        },
        {
            "name": "frontHairDD:SSC",
            "children": [
                30
            ],
            "translation": [
                2.2215027809143068,
                0.0,
                0.0
            ]
        },
        {
            "name": "frontHairDD",
            "children": [
                31
            ],
            "rotation": [
                -0.0003197960031684488,
                -0.0024418740067631008,
                -0.115129254758358,
                0.993347465991974
            ]
        },
        {
            "name": "frontHairDE:SSC",
            "children": [
                32
            ],
            "translation": [
                2.2219998836517336,
                0.0,
                0.0
            ]
        },
        {
            "name": "frontHairDE",
            "children": [
                33
            ],
            "rotation": [
                0.000969336018897593,
                0.01504442561417818,
                -0.06895884871482849,
                0.9975056052207948
            ]
        },
        {
            "name": "frontHairDF:SSC",
            "children": [
                34
            ],
            "translation": [
                2.2219998836517336,
                0.0,
                0.0
            ]
        },
        {
            "name": "frontHairDF",
            "children": [
                35
            ],
            "rotation": [
                0.002412823960185051,
                0.06163367256522179,
                -0.03369873762130737,
                0.9975268840789796
            ]
        },
        {
            "name": "frontHairDG:SSC",
            "children": [
                36
            ],
            "translation": [
                2.2219998836517336,
                0.0,
                0.0
            ]
        },
        {
            "name": "frontHairDG",
            "children": [
                37
            ],
            "rotation": [
                -0.0006922369939275086,
                0.06824660301208496,
                -0.006407182198017836,
                0.9976476430892944
            ]
        },
        {
            "name": "frontHairDH:SSC",
            "children": [
                38
            ],
            "translation": [
                2.2219998836517336,
                0.0,
                0.0
            ]
        },
        {
            "name": "frontHairDH"
        },
        {
            "name": "frontHairAA:SSC",
            "children": [
                40
            ],
            "translation": [
                11.694687843322754,
                7.926577568054199,
                3.928707838058472
            ]
        },
        {
            "name": "frontHairAA",
            "children": [
                41
            ],
            "rotation": [
                0.08959277719259262,
                0.9349095225334168,
                0.3057957291603089,
                -0.15622498095035554
            ]
        },
        {
            "name": "frontHairAB:SSC",
            "children": [
                42
            ],
            "translation": [
                2.3176870346069338,
                0.0,
                0.0
            ]
        },
        {
            "name": "frontHairAB",
            "children": [
                43
            ],
            "rotation": [
                0.010434258729219437,
                0.02145450748503208,
                -0.06601829826831818,
                0.9975331425666808
            ]
        },
        {
            "name": "frontHairAC:SSC",
            "children": [
                44
            ],
            "translation": [
                2.222979784011841,
                0.0,
                0.0
            ]
        },
        {
            "name": "frontHairAC",
            "children": [
                45
            ],
            "rotation": [
                0.0008537539979442954,
                0.02236318588256836,
                -0.07155655324459076,
                0.997185468673706
            ]
        },
        {
            "name": "frontHairAD:SSC",
            "children": [
                46
            ],
            "translation": [
                2.281552314758301,
                0.0,
                0.0
            ]
        },
        {
            "name": "frontHairAD"
        },
        {
            "name": "leftHairBA:SSC",
            "children": [
                48
            ],
            "translation": [
                12.413981437683106,
                -6.04663610458374,
                3.930819988250733
            ]
        },
        {
            "name": "leftHairBA",
            "children": [
                49
            ],
            "rotation": [
                -0.06755005568265915,
                -0.28804704546928408,
                -0.9319329857826232,
                0.20968259871006013
            ]
        },
        {
            "name": "leftHairBB:SSC",
            "children": [
                50
            ],
            "translation": [
                1.989790678024292,
                0.0,
                0.0
            ]
        },
        {
            "name": "leftHairBB",
            "children": [
                51
            ],
            "rotation": [
                9.999999717180686e-10,
                0.00011789600102929398,
                -0.021869119256734849,
                0.9997608065605164
            ]
        },
        {
            "name": "leftHairBC:SSC",
            "children": [
                52
            ],
            "translation": [
                1.989790678024292,
                0.0,
                0.0
            ]
        },
        {
            "name": "leftHairBC",
            "children": [
                53
            ],
            "rotation": [
                -0.0001191789997392334,
                0.0003747990122064948,
                -0.06808219105005264,
                0.9976796507835388
            ]
        },
        {
            "name": "leftHairBD:SSC",
            "children": [
                54
            ],
            "translation": [
                1.916118860244751,
                0.0,
                0.0
            ]
        },
        {
            "name": "leftHairBD",
            "children": [
                55
            ],
            "rotation": [
                1.999999943436137e-9,
                0.00035141099942848086,
                -0.06249583140015602,
                0.9980451464653016
            ]
        },
        {
            "name": "leftHairBE:SSC",
            "children": [
                56
            ],
            "translation": [
                1.916118860244751,
                0.0,
                0.0
            ]
        },
        {
            "name": "leftHairBE",
            "children": [
                57
            ],
            "rotation": [
                -0.0002341170038562268,
                0.00031689798925071955,
                -0.05415087565779686,
                0.9985327124595642
            ]
        },
        {
            "name": "leftHairBF:SSC",
            "children": [
                58
            ],
            "translation": [
                1.8430893421173096,
                0.0,
                0.0
            ]
        },
        {
            "name": "leftHairBF",
            "children": [
                59
            ],
            "rotation": [
                -1.999999943436137e-9,
                0.00023117799719329923,
                -0.037922680377960208,
                0.9992806315422058
            ]
        },
        {
            "name": "leftHairBG:SSC",
            "children": [
                60
            ],
            "translation": [
                1.8430893421173096,
                0.0,
                0.0
            ]
        },
        {
            "name": "leftHairBG",
            "children": [
                61
            ],
            "rotation": [
                -0.0002682879858184606,
                0.000262345012743026,
                -0.04114481434226036,
                0.9991531372070313
            ]
        },
        {
            "name": "leftHairBH:SSC",
            "children": [
                62
            ],
            "translation": [
                1.805540919303894,
                0.0,
                0.0
            ]
        },
        {
            "name": "leftHairBH",
            "children": [
                63
            ],
            "rotation": [
                9.99999993922529e-9,
                0.0003666960110422224,
                -0.055282849818468097,
                0.998470664024353
            ]
        },
        {
            "name": "leftHairBI:SSC",
            "children": [
                64
            ],
            "translation": [
                1.805540919303894,
                0.0,
                0.0
            ]
        },
        {
            "name": "leftHairBI",
            "children": [
                65
            ],
            "rotation": [
                -0.001052538980729878,
                0.0004981610109098256,
                -0.04889832064509392,
                0.9988030791282654
            ]
        },
        {
            "name": "leftHairBJ:SSC",
            "children": [
                66
            ],
            "translation": [
                1.6913204193115237,
                0.0,
                0.0
            ]
        },
        {
            "name": "leftHairBJ",
            "children": [
                67
            ],
            "rotation": [
                0.00001470099959988147,
                0.00019066600361838937,
                0.07365826517343521,
                0.9972835183143616
            ]
        },
        {
            "name": "leftHairBK:SSC",
            "children": [
                68
            ],
            "translation": [
                1.6913204193115237,
                0.0,
                0.0
            ]
        },
        {
            "name": "leftHairBK"
        },
        {
            "name": "leftHairAA:SSC",
            "children": [
                70
            ],
            "translation": [
                12.053095817565918,
                -2.3538308143615724,
                6.4288201332092289
            ]
        },
        {
            "name": "leftHairAA",
            "children": [
                71
            ],
            "rotation": [
                -0.12735728919506074,
                -0.5850504040718079,
                -0.7767892479896545,
                0.1951783746480942
            ]
        },
        {
            "name": "leftHairAB:SSC",
            "children": [
                72
            ],
            "translation": [
                2.011487245559693,
                0.0,
                0.0
            ]
        },
        {
            "name": "leftHairAB",
            "children": [
                73
            ],
            "rotation": [
                -0.0,
                -0.00012171999696874992,
                -0.017243187874555589,
                0.9998513460159302
            ]
        },
        {
            "name": "leftHairAC:SSC",
            "children": [
                74
            ],
            "translation": [
                2.011487245559693,
                0.0,
                0.0
            ]
        },
        {
            "name": "leftHairAC",
            "children": [
                75
            ],
            "rotation": [
                0.0000956939984462224,
                -0.0004038620099890977,
                -0.0564696416258812,
                0.9984042048454284
            ]
        },
        {
            "name": "leftHairAD:SSC",
            "children": [
                76
            ],
            "translation": [
                1.95137882232666,
                0.0,
                0.0
            ]
        },
        {
            "name": "leftHairAD",
            "children": [
                77
            ],
            "rotation": [
                9.999999717180686e-10,
                -0.0005269080284051597,
                -0.07276330143213272,
                0.9973490834236144
            ]
        },
        {
            "name": "leftHairAE:SSC",
            "children": [
                78
            ],
            "translation": [
                1.95137882232666,
                0.0,
                0.0
            ]
        },
        {
            "name": "leftHairAE",
            "children": [
                79
            ],
            "rotation": [
                0.000597580976318568,
                -0.0007280380232259631,
                -0.09287618845701218,
                0.9956772327423096
            ]
        },
        {
            "name": "leftHairAF:SSC",
            "children": [
                80
            ],
            "translation": [
                1.847683072090149,
                0.0,
                0.0
            ]
        },
        {
            "name": "leftHairAF",
            "children": [
                81
            ],
            "rotation": [
                7.000000135093387e-9,
                -0.0005650760140269995,
                -0.06688633561134339,
                0.9977604150772096
            ]
        },
        {
            "name": "leftHairAG:SSC",
            "children": [
                82
            ],
            "translation": [
                1.847683072090149,
                0.0,
                0.0
            ]
        },
        {
            "name": "leftHairAG",
            "children": [
                83
            ],
            "rotation": [
                0.0008787050028331578,
                -0.0006182700162753463,
                -0.06613662093877793,
                0.9978100061416626
            ]
        },
        {
            "name": "leftHairAH:SSC",
            "children": [
                84
            ],
            "translation": [
                1.8705581426620484,
                0.0,
                0.0
            ]
        },
        {
            "name": "leftHairAH",
            "children": [
                85
            ],
            "rotation": [
                -0.000022465999791165818,
                -0.000865267007611692,
                -0.05428463593125343,
                0.9985251426696776
            ]
        },
        {
            "name": "leftHairAI:SSC",
            "children": [
                86
            ],
            "translation": [
                1.8705581426620484,
                0.0,
                0.0
            ]
        },
        {
            "name": "leftHairAI",
            "children": [
                87
            ],
            "rotation": [
                0.003161227097734809,
                -0.0013898980105295778,
                0.05135679990053177,
                0.9986743927001952
            ]
        },
        {
            "name": "leftHairAJ:SSC",
            "children": [
                88
            ],
            "translation": [
                1.841827154159546,
                0.0,
                0.0
            ]
        },
        {
            "name": "leftHairAJ",
            "children": [
                89
            ],
            "rotation": [
                -0.0000468420003016945,
                -0.00039197198930196464,
                0.1180972009897232,
                0.9930019378662108
            ]
        },
        {
            "name": "leftHairAK:SSC",
            "children": [
                90
            ],
            "translation": [
                1.841827154159546,
                0.0,
                0.0
            ]
        },
        {
            "name": "leftHairAK"
        },
        {
            "name": "backHairAA:SSC",
            "children": [
                92
            ],
            "translation": [
                12.283082962036133,
                -8.032289505004883,
                0.0
            ]
        },
        {
            "name": "backHairAA",
            "children": [
                93
            ],
            "rotation": [
                0.0001154670026153326,
                -0.000544905022252351,
                -0.9782773852348328,
                0.20729941129684449
            ]
        },
        {
            "name": "backHairAB:SSC",
            "children": [
                94
            ],
            "translation": [
                1.9240082502365113,
                0.0,
                0.0
            ]
        },
        {
            "name": "backHairAB",
            "children": [
                95
            ],
            "rotation": [
                -0.000028349000785965474,
                -0.00001497999983257614,
                -0.013798176310956478,
                0.9999048113822936
            ]
        },
        {
            "name": "backHairAC:SSC",
            "children": [
                96
            ],
            "translation": [
                1.9240082502365113,
                0.0,
                0.0
            ]
        },
        {
            "name": "backHairAC",
            "children": [
                97
            ],
            "rotation": [
                -0.000008846000127959997,
                -0.0000451279993285425,
                -0.04304270818829537,
                0.9990732073783876
            ]
        },
        {
            "name": "backHairAD:SSC",
            "children": [
                98
            ],
            "translation": [
                1.930100679397583,
                -1.999999987845058e-8,
                0.0
            ]
        },
        {
            "name": "backHairAD",
            "children": [
                99
            ],
            "rotation": [
                -0.000008308000360557344,
                -0.000046176999603630978,
                -0.04477625340223313,
                0.9989970326423644
            ]
        },
        {
            "name": "backHairAE:SSC",
            "children": [
                100
            ],
            "translation": [
                1.930100679397583,
                -1.999999987845058e-8,
                0.0
            ]
        },
        {
            "name": "backHairAE",
            "children": [
                101
            ],
            "rotation": [
                -0.000007617999926878838,
                -0.00004767399877891876,
                -0.04695351421833038,
                0.9988970756530762
            ]
        },
        {
            "name": "backHairAF:SSC",
            "children": [
                102
            ],
            "translation": [
                1.8512641191482545,
                -2.5000000292152437e-8,
                0.0
            ]
        },
        {
            "name": "backHairAF",
            "children": [
                103
            ],
            "rotation": [
                0.000005419999979494605,
                -0.00003719999949680641,
                -0.03671809658408165,
                0.9993256330490112
            ]
        },
        {
            "name": "backHairAG:SSC",
            "children": [
                104
            ],
            "translation": [
                1.8512641191482545,
                -2.5000000292152437e-8,
                0.0
            ]
        },
        {
            "name": "backHairAG",
            "children": [
                105
            ],
            "rotation": [
                -0.000005419999979494605,
                -0.000044355001591611656,
                -0.0437796376645565,
                0.9990411996841432
            ]
        },
        {
            "name": "backHairAH:SSC",
            "children": [
                106
            ],
            "translation": [
                1.8000097274780274,
                -2.099999996119095e-8,
                0.0
            ]
        },
        {
            "name": "backHairAH",
            "children": [
                107
            ],
            "rotation": [
                0.00006530900282086805,
                -0.00006440399738494307,
                -0.06001444160938263,
                0.9981974959373474
            ]
        },
        {
            "name": "backHairAI:SSC",
            "children": [
                108
            ],
            "translation": [
                1.8000097274780274,
                -2.099999996119095e-8,
                0.0
            ]
        },
        {
            "name": "backHairAI",
            "children": [
                109
            ],
            "rotation": [
                -0.000029274999178596773,
                -0.00007833499694243073,
                -0.06365901231765747,
                0.9979717135429382
            ]
        },
        {
            "name": "backHairAJ:SSC",
            "children": [
                110
            ],
            "translation": [
                1.6210505962371829,
                0.0,
                0.0
            ]
        },
        {
            "name": "backHairAJ",
            "children": [
                111
            ],
            "rotation": [
                -0.0000010669999710444245,
                -0.000027369000235921704,
                0.02357420884072781,
                0.9997220635414124
            ]
        },
        {
            "name": "backHairAK:SSC",
            "children": [
                112
            ],
            "translation": [
                1.6210505962371829,
                0.0,
                0.0
            ]
        },
        {
            "name": "backHairAK"
        },
        {
            "name": "rightHairDA:SSC",
            "children": [
                114
            ],
            "translation": [
                12.413531303405762,
                -6.046637535095215,
                -3.930823564529419
            ]
        },
        {
            "name": "rightHairDA",
            "children": [
                115
            ],
            "rotation": [
                0.0675535574555397,
                0.2880462110042572,
                -0.931930422782898,
                0.2096940279006958
            ]
        },
        {
            "name": "rightHairDB:SSC",
            "children": [
                116
            ],
            "translation": [
                1.989704966545105,
                0.0,
                0.0
            ]
        },
        {
            "name": "rightHairDB",
            "children": [
                117
            ],
            "rotation": [
                0.0001193290008814074,
                -0.00012035299732815474,
                -0.02186676859855652,
                0.9997608661651612
            ]
        },
        {
            "name": "rightHairDC:SSC",
            "children": [
                118
            ],
            "translation": [
                1.989704966545105,
                0.0,
                0.0
            ]
        },
        {
            "name": "rightHairDC",
            "children": [
                119
            ],
            "rotation": [
                -0.00011909000022569673,
                -0.0003748339950107038,
                -0.068082295358181,
                0.9976796507835388
            ]
        },
        {
            "name": "rightHairDD:SSC",
            "children": [
                120
            ],
            "translation": [
                1.915806531906128,
                0.0,
                0.0
            ]
        },
        {
            "name": "rightHairDD",
            "children": [
                121
            ],
            "rotation": [
                0.00021231299615465105,
                -0.00034975798917002976,
                -0.06250394135713577,
                0.9980446100234984
            ]
        },
        {
            "name": "rightHairDE:SSC",
            "children": [
                122
            ],
            "translation": [
                1.915806531906128,
                0.0,
                0.0
            ]
        },
        {
            "name": "rightHairDE",
            "children": [
                123
            ],
            "rotation": [
                -0.00005478299863170833,
                -0.00031167801353149116,
                -0.054157357662916186,
                0.9985323548316956
            ]
        },
        {
            "name": "rightHairDF:SSC",
            "children": [
                124
            ],
            "translation": [
                1.8434988260269168,
                0.0,
                0.0
            ]
        },
        {
            "name": "rightHairDF",
            "children": [
                125
            ],
            "rotation": [
                0.00023217700072564185,
                -0.00022515900491271168,
                -0.03792177885770798,
                0.9992806315422058
            ]
        },
        {
            "name": "rightHairDG:SSC",
            "children": [
                126
            ],
            "translation": [
                1.8434988260269168,
                0.0,
                0.0
            ]
        },
        {
            "name": "rightHairDG",
            "children": [
                127
            ],
            "rotation": [
                -0.000028243999622645789,
                -0.00025253300555050373,
                -0.04114992916584015,
                0.9991529583930968
            ]
        },
        {
            "name": "rightHairDH:SSC",
            "children": [
                128
            ],
            "translation": [
                1.8052881956100464,
                0.0,
                0.0
            ]
        },
        {
            "name": "rightHairDH",
            "children": [
                129
            ],
            "rotation": [
                0.001018436043523252,
                -0.0003940419992431998,
                -0.05528610199689865,
                0.9984699487686156
            ]
        },
        {
            "name": "rightHairDI:SSC",
            "children": [
                130
            ],
            "translation": [
                1.8052881956100464,
                0.0,
                0.0
            ]
        },
        {
            "name": "rightHairDI",
            "children": [
                131
            ],
            "rotation": [
                -0.0001709159987512976,
                -0.0005005080020055175,
                -0.05250547081232071,
                0.9986205101013184
            ]
        },
        {
            "name": "rightHairDJ:SSC",
            "children": [
                132
            ],
            "translation": [
                1.691360592842102,
                0.0,
                0.0
            ]
        },
        {
            "name": "rightHairDJ",
            "children": [
                133
            ],
            "rotation": [
                -0.000009753000085765962,
                -0.00017131000640802083,
                0.04895851761102677,
                0.998800814151764
            ]
        },
        {
            "name": "rightHairDK:SSC",
            "children": [
                134
            ],
            "translation": [
                1.691360592842102,
                0.0,
                0.0
            ]
        },
        {
            "name": "rightHairDK"
        },
        {
            "name": "rightHairCA:SSC",
            "children": [
                136
            ],
            "translation": [
                12.052602767944336,
                -2.353825569152832,
                -6.428816318511963
            ]
        },
        {
            "name": "rightHairCA",
            "children": [
                137
            ],
            "rotation": [
                0.12737229466438294,
                0.5850461721420288,
                -0.7767839431762695,
                0.19520248472690586
            ]
        },
        {
            "name": "rightHairCB:SSC",
            "children": [
                138
            ],
            "translation": [
                2.0112595558166506,
                0.0,
                0.0
            ]
        },
        {
            "name": "rightHairCB",
            "children": [
                139
            ],
            "rotation": [
                -0.0000441960000898689,
                0.00012257799971848726,
                -0.01724499650299549,
                0.9998512864112854
            ]
        },
        {
            "name": "rightHairCC:SSC",
            "children": [
                140
            ],
            "translation": [
                2.0112595558166506,
                0.0,
                0.0
            ]
        },
        {
            "name": "rightHairCC",
            "children": [
                141
            ],
            "rotation": [
                0.0000944299972616136,
                0.0003986129886470735,
                -0.056480772793293,
                0.9984036087989808
            ]
        },
        {
            "name": "rightHairCD:SSC",
            "children": [
                142
            ],
            "translation": [
                1.9511961936950684,
                0.0,
                0.0
            ]
        },
        {
            "name": "rightHairCD",
            "children": [
                143
            ],
            "rotation": [
                -0.0005949059850536287,
                0.0005500760162249208,
                -0.07277335971593857,
                0.9973481893539428
            ]
        },
        {
            "name": "rightHairCE:SSC",
            "children": [
                144
            ],
            "translation": [
                1.9511961936950684,
                0.0,
                0.0
            ]
        },
        {
            "name": "rightHairCE",
            "children": [
                145
            ],
            "rotation": [
                0.0002491679915692657,
                0.0007341349846683443,
                -0.09288063645362854,
                0.9956769347190856
            ]
        },
        {
            "name": "rightHairCF:SSC",
            "children": [
                146
            ],
            "translation": [
                1.847831964492798,
                0.0,
                0.0
            ]
        },
        {
            "name": "rightHairCF",
            "children": [
                147
            ],
            "rotation": [
                -0.000717228977009654,
                0.0005601730081252754,
                -0.06688455492258072,
                0.99776029586792
            ]
        },
        {
            "name": "rightHairCG:SSC",
            "children": [
                148
            ],
            "translation": [
                1.847831964492798,
                0.0,
                0.0
            ]
        },
        {
            "name": "rightHairCG",
            "children": [
                149
            ],
            "rotation": [
                0.00011425399861764164,
                0.0005938300164416432,
                -0.06613843142986298,
                0.9978102445602416
            ]
        },
        {
            "name": "rightHairCH:SSC",
            "children": [
                150
            ],
            "translation": [
                1.8705320358276368,
                0.0,
                0.0
            ]
        },
        {
            "name": "rightHairCH",
            "children": [
                151
            ],
            "rotation": [
                -0.0025908038951456548,
                0.0008662960026413202,
                -0.0551421158015728,
                0.9984747767448424
            ]
        },
        {
            "name": "rightHairCI:SSC",
            "children": [
                152
            ],
            "translation": [
                1.8705320358276368,
                0.0,
                0.0
            ]
        },
        {
            "name": "rightHairCI",
            "children": [
                153
            ],
            "rotation": [
                0.0005145079921931028,
                0.0009440829744562508,
                0.04555472731590271,
                0.9989612698554992
            ]
        },
        {
            "name": "rightHairCJ:SSC",
            "children": [
                154
            ],
            "translation": [
                1.8419629335403445,
                0.0,
                0.0
            ]
        },
        {
            "name": "rightHairCJ",
            "children": [
                155
            ],
            "rotation": [
                0.0000352060014847666,
                0.00031074098660610616,
                0.11140327900648116,
                0.9937752485275269
            ]
        },
        {
            "name": "rightHairCK:SSC",
            "children": [
                156
            ],
            "translation": [
                1.8419629335403445,
                0.0,
                0.0
            ]
        },
        {
            "name": "rightHairCK"
        },
        {
            "name": "rightHairBA:SSC",
            "children": [
                158
            ],
            "translation": [
                12.168763160705569,
                2.21203875541687,
                -6.645342826843262
            ]
        },
        {
            "name": "rightHairBA",
            "children": [
                159
            ],
            "rotation": [
                -0.15081217885017396,
                -0.7679528594017029,
                0.6089518666267395,
                -0.1291579902172089
            ]
        },
        {
            "name": "rightHairBB:SSC",
            "children": [
                160
            ],
            "translation": [
                2.0201029777526857,
                0.0,
                0.0
            ]
        },
        {
            "name": "rightHairBB",
            "children": [
                161
            ],
            "rotation": [
                -0.0009369520121254028,
                -0.0009754180209711194,
                -0.01815469935536385,
                0.9998342990875244
            ]
        },
        {
            "name": "rightHairBC:SSC",
            "children": [
                162
            ],
            "translation": [
                2.0201029777526857,
                0.0,
                0.0
            ]
        },
        {
            "name": "rightHairBC",
            "children": [
                163
            ],
            "rotation": [
                -0.0007728940108790994,
                -0.0030688869301229717,
                -0.05901586264371872,
                0.9982520341873168
            ]
        },
        {
            "name": "rightHairBD:SSC",
            "children": [
                164
            ],
            "translation": [
                1.95422101020813,
                0.0,
                0.0
            ]
        },
        {
            "name": "rightHairBD",
            "children": [
                165
            ],
            "rotation": [
                0.002067246939986944,
                -0.0038663700688630344,
                -0.07253332436084748,
                0.9973563551902772
            ]
        },
        {
            "name": "rightHairBE:SSC",
            "children": [
                166
            ],
            "translation": [
                1.95422101020813,
                0.0,
                0.0
            ]
        },
        {
            "name": "rightHairBE",
            "children": [
                167
            ],
            "rotation": [
                -0.0015362879494205118,
                -0.004790865816175938,
                -0.08898510783910752,
                0.996020257472992
            ]
        },
        {
            "name": "rightHairBF:SSC",
            "children": [
                168
            ],
            "translation": [
                1.85524582862854,
                0.0,
                0.0
            ]
        },
        {
            "name": "rightHairBF",
            "children": [
                169
            ],
            "rotation": [
                0.003103533061221242,
                -0.003596293041482568,
                -0.06490574032068253,
                0.9978801012039184
            ]
        },
        {
            "name": "rightHairBG:SSC",
            "children": [
                170
            ],
            "translation": [
                1.85524582862854,
                0.0,
                0.0
            ]
        },
        {
            "name": "rightHairBG",
            "children": [
                171
            ],
            "rotation": [
                -0.0007313290261663497,
                -0.003772601019591093,
                -0.06527397036552429,
                0.9978599548339844
            ]
        },
        {
            "name": "rightHairBH:SSC",
            "children": [
                172
            ],
            "translation": [
                1.884828805923462,
                0.0,
                0.0
            ]
        },
        {
            "name": "rightHairBH",
            "children": [
                173
            ],
            "rotation": [
                0.009975643828511238,
                -0.004696972202509642,
                -0.07000268250703812,
                0.997485876083374
            ]
        },
        {
            "name": "rightHairBI:SSC",
            "children": [
                174
            ],
            "translation": [
                1.884828805923462,
                0.0,
                0.0
            ]
        },
        {
            "name": "rightHairBI",
            "children": [
                175
            ],
            "rotation": [
                -0.0020316708832979204,
                -0.005193877033889294,
                -0.0460340678691864,
                0.9989243149757384
            ]
        },
        {
            "name": "rightHairBJ:SSC",
            "children": [
                176
            ],
            "translation": [
                1.830001711845398,
                0.0,
                0.0
            ]
        },
        {
            "name": "rightHairBJ",
            "children": [
                177
            ],
            "rotation": [
                -0.00021631999698001891,
                -0.001659734989516437,
                0.13463357090950013,
                0.9908940196037293
            ]
        },
        {
            "name": "rightHairBK:SSC",
            "children": [
                178
            ],
            "translation": [
                1.830001711845398,
                0.0,
                0.0
            ]
        },
        {
            "name": "rightHairBK"
        },
        {
            "name": "rightHairAA:SSC",
            "children": [
                180
            ],
            "translation": [
                12.068155288696288,
                6.08238410949707,
                -4.515264987945557
            ]
        },
        {
            "name": "rightHairAA",
            "children": [
                181
            ],
            "rotation": [
                -0.1799848973751068,
                -0.7921324372291565,
                0.5559571385383606,
                -0.176191046833992
            ]
        },
        {
            "name": "rightHairAB:SSC",
            "children": [
                182
            ],
            "translation": [
                2.1684882640838625,
                0.0,
                0.0
            ]
        },
        {
            "name": "rightHairAB",
            "children": [
                183
            ],
            "rotation": [
                0.00031260200194083154,
                0.00018329299928154796,
                -0.019503764808177949,
                0.999809741973877
            ]
        },
        {
            "name": "rightHairAC:SSC",
            "children": [
                184
            ],
            "translation": [
                2.1684882640838625,
                0.0,
                0.0
            ]
        },
        {
            "name": "rightHairAC",
            "children": [
                185
            ],
            "rotation": [
                0.00015774699568282813,
                0.0005683469935320318,
                -0.06376437842845917,
                0.9979647994041444
            ]
        },
        {
            "name": "rightHairAD:SSC",
            "children": [
                186
            ],
            "translation": [
                2.007681369781494,
                0.0,
                0.0
            ]
        },
        {
            "name": "rightHairAD",
            "children": [
                187
            ],
            "rotation": [
                -0.00019514599989634007,
                0.0006668129935860634,
                -0.07449021935462952,
                0.9972215294837952
            ]
        },
        {
            "name": "rightHairAE:SSC",
            "children": [
                188
            ],
            "translation": [
                2.007681369781494,
                0.0,
                0.0
            ]
        },
        {
            "name": "rightHairAE",
            "children": [
                189
            ],
            "rotation": [
                0.00024063000455498695,
                0.0007977900095283985,
                -0.08958378434181214,
                0.9959789514541626
            ]
        },
        {
            "name": "rightHairAF:SSC",
            "children": [
                190
            ],
            "translation": [
                1.8352097272872925,
                0.0,
                0.0
            ]
        },
        {
            "name": "rightHairAF",
            "children": [
                191
            ],
            "rotation": [
                -0.0008077169768512249,
                0.0007408339879475534,
                -0.07791260629892349,
                0.9969595670700072
            ]
        },
        {
            "name": "rightHairAG:SSC",
            "children": [
                192
            ],
            "translation": [
                1.8352097272872925,
                0.0,
                0.0
            ]
        },
        {
            "name": "rightHairAG",
            "children": [
                193
            ],
            "rotation": [
                0.0002887510054279119,
                0.001013756962493062,
                -0.09213267266750336,
                0.9957461953163148
            ]
        },
        {
            "name": "rightHairAH:SSC",
            "children": [
                194
            ],
            "translation": [
                1.8525925874710084,
                0.0,
                0.0
            ]
        },
        {
            "name": "rightHairAH",
            "children": [
                195
            ],
            "rotation": [
                -0.004535065032541752,
                0.0018228800036013129,
                -0.08789927512407303,
                0.996117353439331
            ]
        },
        {
            "name": "rightHairAI:SSC",
            "children": [
                196
            ],
            "translation": [
                1.8525925874710084,
                0.0,
                0.0
            ]
        },
        {
            "name": "rightHairAI",
            "children": [
                197
            ],
            "rotation": [
                0.0009427319746464492,
                0.002181003103032708,
                -0.06039730459451676,
                0.99817156791687
            ]
        },
        {
            "name": "rightHairAJ:SSC",
            "children": [
                198
            ],
            "translation": [
                1.8419629335403445,
                0.0,
                0.0
            ]
        },
        {
            "name": "rightHairAJ",
            "children": [
                199
            ],
            "rotation": [
                0.00006507399666588753,
                0.0006815340020693839,
                0.09111831337213516,
                0.9958398342132568
            ]
        },
        {
            "name": "rightHairAK:SSC",
            "children": [
                200
            ],
            "translation": [
                1.8419629335403445,
                0.0,
                0.0
            ]
        },
        {
            "name": "rightHairAK"
        },
        {
            "name": "frontHairBA:SSC",
            "children": [
                202
            ],
            "translation": [
                11.972872734069825,
                9.020485877990725,
                1.7931299209594729
            ]
        },
        {
            "name": "frontHairBA",
            "children": [
                203
            ],
            "rotation": [
                0.1756086498498917,
                0.968332588672638,
                0.018323931843042378,
                0.1765158772468567
            ]
        },
        {
            "name": "frontHairBB:SSC",
            "children": [
                204
            ],
            "translation": [
                2.3458895683288576,
                0.0,
                0.0
            ]
        },
        {
            "name": "frontHairBB",
            "children": [
                205
            ],
            "rotation": [
                -0.01740332879126072,
                -0.028821611776947976,
                -0.08909713476896286,
                0.995453715324402
            ]
        },
        {
            "name": "frontHairBC:SSC",
            "children": [
                206
            ],
            "translation": [
                2.1497926712036139,
                0.0,
                0.0
            ]
        },
        {
            "name": "frontHairBC",
            "children": [
                207
            ],
            "rotation": [
                -0.0023761969059705736,
                -0.028597988188266759,
                -0.09479521960020066,
                0.9950830936431884
            ]
        },
        {
            "name": "frontHairBD:SSC",
            "children": [
                208
            ],
            "translation": [
                2.3369851112365724,
                0.0,
                0.0
            ]
        },
        {
            "name": "frontHairBD"
        },
        {
            "name": "frontHairCA:SSC",
            "children": [
                210
            ],
            "translation": [
                12.208767890930176,
                9.105816841125489,
                -0.4722813367843628
            ]
        },
        {
            "name": "frontHairCA",
            "children": [
                211
            ],
            "rotation": [
                -0.14385859668254853,
                -0.9600759744644164,
                0.10335301607847214,
                -0.2165110409259796
            ]
        },
        {
            "name": "frontHairCB:SSC",
            "children": [
                212
            ],
            "translation": [
                2.2202818393707277,
                0.0,
                0.0
            ]
        },
        {
            "name": "frontHairCB",
            "children": [
                213
            ],
            "rotation": [
                -0.004376733209937811,
                -0.00959936622530222,
                -0.04634346440434456,
                0.9988698363304138
            ]
        },
        {
            "name": "frontHairCC:SSC",
            "children": [
                214
            ],
            "translation": [
                2.1408016681671144,
                0.0,
                0.0
            ]
        },
        {
            "name": "frontHairCC",
            "children": [
                215
            ],
            "rotation": [
                -0.00099362398032099,
                -0.011094204150140286,
                -0.05505913496017456,
                0.9984209537506104
            ]
        },
        {
            "name": "frontHairCD:SSC",
            "children": [
                216
            ],
            "translation": [
                2.2215027809143068,
                0.0,
                0.0
            ]
        },
        {
            "name": "frontHairCD"
        },
        {
            "name": "hairLowPolyGrp",
            "children": [
                218
            ]
        },
        {
            "name": "hair_bf",
            "mesh": 0,
            "skin": 0
        }
    ],
    "meshes": [
        {
            "name": "hair_bfShape",
            "extras": {
                "targetNames": []
            },
            "primitives": [
                {
                    "attributes": {
                        "JOINTS_0": 1,
                        "JOINTS_1": 2,
                        "JOINTS_2": 3,
                        "NORMAL": 4,
                        "POSITION": 5,
                        "TANGENT": 6,
                        "TEXCOORD_1": 7,
                        "WEIGHTS_0": 8,
                        "WEIGHTS_1": 9,
                        "WEIGHTS_2": 10
                    },
                    "indices": 0,
                    "mode": 4,
                    "material": 0
                },
                {
                    "attributes": {
                        "JOINTS_0": 12,
                        "JOINTS_1": 13,
                        "JOINTS_2": 14,
                        "NORMAL": 15,
                        "POSITION": 16,
                        "TANGENT": 17,
                        "TEXCOORD_0": 18,
                        "TEXCOORD_1": 19,
                        "WEIGHTS_0": 20,
                        "WEIGHTS_1": 21,
                        "WEIGHTS_2": 22
                    },
                    "indices": 11,
                    "mode": 4,
                    "material": 0
                }
            ]
        }
    ],
    "skins": [
        {
            "name": "hair_bfShape",
            "inverseBindMatrices": 23,
            "joints": [
                22,
                210,
                202,
                180,
                158,
                136,
                114,
                92,
                70,
                48,
                40,
                24,
                212,
                214,
                216,
                204,
                206,
                208,
                182,
                184,
                186,
                188,
                190,
                192,
                194,
                196,
                198,
                200,
                160,
                162,
                164,
                166,
                168,
                170,
                172,
                174,
                176,
                178,
                138,
                140,
                142,
                144,
                146,
                148,
                150,
                152,
                154,
                156,
                116,
                118,
                120,
                122,
                124,
                126,
                128,
                130,
                132,
                134,
                94,
                96,
                98,
                100,
                102,
                104,
                106,
                108,
                110,
                112,
                72,
                74,
                76,
                78,
                80,
                82,
                84,
                86,
                88,
                90,
                50,
                52,
                54,
                56,
                58,
                60,
                62,
                64,
                66,
                68,
                42,
                44,
                46,
                26,
                28,
                30,
                32,
                34,
                36,
                38
            ]
        }
    ],
    "materials": [
        {
            "name": "lambert1",
            "pbrMetallicRoughness": {
                "baseColorFactor": [
                    0.4000000059604645,
                    0.4000000059604645,
                    0.4000000059604645,
                    1.0
                ],
                "metallicFactor": 0.0,
                "roughnessFactor": 1.0
            }
        }
    ],
    "animations": [
        {
            "name": "clip",
            "channels": [
                {
                    "sampler": 0,
                    "target": {
                        "node": 15,
                        "path": "translation"
                    }
                },
                {
                    "sampler": 1,
                    "target": {
                        "node": 16,
                        "path": "rotation"
                    }
                },
                {
                    "sampler": 2,
                    "target": {
                        "node": 17,
                        "path": "translation"
                    }
                },
                {
                    "sampler": 3,
                    "target": {
                        "node": 18,
                        "path": "rotation"
                    }
                },
                {
                    "sampler": 4,
                    "target": {
                        "node": 19,
                        "path": "translation"
                    }
                },
                {
                    "sampler": 5,
                    "target": {
                        "node": 20,
                        "path": "rotation"
                    }
                }
            ],
            "samplers": [
                {
                    "input": 24,
                    "interpolation": "LINEAR",
                    "output": 25
                },
                {
                    "input": 24,
                    "interpolation": "LINEAR",
                    "output": 26
                },
                {
                    "input": 24,
                    "interpolation": "LINEAR",
                    "output": 27
                },
                {
                    "input": 24,
                    "interpolation": "LINEAR",
                    "output": 28
                },
                {
                    "input": 24,
                    "interpolation": "LINEAR",
                    "output": 29
                },
                {
                    "input": 24,
                    "interpolation": "LINEAR",
                    "output": 30
                }
            ]
        }
    ],
    "accessors": [
        {
            "name": "hair_bfShape#0/indices",
            "bufferView": 0,
            "byteOffset": 0,
            "componentType": 5123,
            "count": 120,
            "max": [
                41
            ],
            "min": [
                0
            ],
            "type": "SCALAR"
        },
        {
            "name": "hair_bfShape#0/vertices/JOINTS_0",
            "bufferView": 1,
            "byteOffset": 0,
            "componentType": 5123,
            "count": 42,
            "max": [
                0,
                74,
                73,
                75
            ],
            "min": [
                0,
                0,
                0,
                0
            ],
            "type": "VEC4"
        },
        {
            "name": "hair_bfShape#0/vertices/JOINTS_1",
            "bufferView": 1,
            "byteOffset": 336,
            "componentType": 5123,
            "count": 42,
            "max": [
                68,
                78,
                70,
                0
            ],
            "min": [
                0,
                0,
                0,
                0
            ],
            "type": "VEC4"
        },
        {
            "name": "hair_bfShape#0/vertices/JOINTS_2",
            "bufferView": 1,
            "byteOffset": 672,
            "componentType": 5123,
            "count": 42,
            "max": [
                0,
                0,
                0,
                0
            ],
            "min": [
                0,
                0,
                0,
                0
            ],
            "type": "VEC4"
        },
        {
            "name": "hair_bfShape#0/vertices/NORMAL",
            "bufferView": 2,
            "byteOffset": 0,
            "componentType": 5126,
            "count": 42,
            "max": [
                0.9801836609840392,
                0.3233282864093781,
                0.48950719833374026
            ],
            "min": [
                0.8707388043403626,
                -0.30865478515625,
                -0.20100578665733336
            ],
            "type": "VEC3"
        },
        {
            "name": "hair_bfShape#0/vertices/POSITION",
            "bufferView": 2,
            "byteOffset": 504,
            "componentType": 5126,
            "count": 42,
            "max": [
                7.569173812866211,
                158.6900634765625,
                0.8566955327987671
            ],
            "min": [
                6.643261909484863,
                151.98886108398438,
                -3.5529634952545168
            ],
            "type": "VEC3"
        },
        {
            "name": "hair_bfShape#0/vertices/TANGENT",
            "bufferView": 3,
            "byteOffset": 0,
            "componentType": 5126,
            "count": 42,
            "max": [
                0.3233594298362732,
                0.28916069865226748,
                0.9826539754867554,
                1.0
            ],
            "min": [
                0.16996876895427705,
                -0.9458976984024048,
                -0.569459080696106,
                1.0
            ],
            "type": "VEC4"
        },
        {
            "name": "hair_bfShape#0/vertices/TEXCOORD_1",
            "bufferView": 1,
            "byteOffset": 1008,
            "componentType": 5126,
            "count": 42,
            "max": [
                0.7207023501396179,
                0.19329833984375
            ],
            "min": [
                0.71563720703125,
                0.1359184980392456
            ],
            "type": "VEC2"
        },
        {
            "name": "hair_bfShape#0/vertices/WEIGHTS_0",
            "bufferView": 3,
            "byteOffset": 672,
            "componentType": 5126,
            "count": 42,
            "max": [
                1.0,
                0.02313319779932499,
                0.01985892467200756,
                0.0056213089264929298
            ],
            "min": [
                0.9537336230278016,
                0.0,
                0.0,
                0.0
            ],
            "type": "VEC4"
        },
        {
            "name": "hair_bfShape#0/vertices/WEIGHTS_1",
            "bufferView": 3,
            "byteOffset": 1344,
            "componentType": 5126,
            "count": 42,
            "max": [
                0.0003756110090762377,
                0.0002766030083876103,
                0.000002898000047935057,
                0.0
            ],
            "min": [
                0.0,
                0.0,
                0.0,
                0.0
            ],
            "type": "VEC4"
        },
        {
            "name": "hair_bfShape#0/vertices/WEIGHTS_2",
            "bufferView": 3,
            "byteOffset": 2016,
            "componentType": 5126,
            "count": 42,
            "max": [
                0.0,
                0.0,
                0.0,
                0.0
            ],
            "min": [
                0.0,
                0.0,
                0.0,
                0.0
            ],
            "type": "VEC4"
        },
        {
            "name": "hair_bfShape#1/indices",
            "bufferView": 0,
            "byteOffset": 240,
            "componentType": 5123,
            "count": 79434,
            "max": [
                28135
            ],
            "min": [
                0
            ],
            "type": "SCALAR"
        },
        {
            "name": "hair_bfShape#1/vertices/JOINTS_0",
            "bufferView": 1,
            "byteOffset": 1344,
            "componentType": 5123,
            "count": 28136,
            "max": [
                97,
                97,
                94,
                93
            ],
            "min": [
                0,
                0,
                0,
                0
            ],
            "type": "VEC4"
        },
        {
            "name": "hair_bfShape#1/vertices/JOINTS_1",
            "bufferView": 1,
            "byteOffset": 226432,
            "componentType": 5123,
            "count": 28136,
            "max": [
                93,
                93,
                92,
                92
            ],
            "min": [
                0,
                0,
                0,
                0
            ],
            "type": "VEC4"
        },
        {
            "name": "hair_bfShape#1/vertices/JOINTS_2",
            "bufferView": 1,
            "byteOffset": 451520,
            "componentType": 5123,
            "count": 28136,
            "max": [
                91,
                0,
                0,
                0
            ],
            "min": [
                0,
                0,
                0,
                0
            ],
            "type": "VEC4"
        },
        {
            "name": "hair_bfShape#1/vertices/NORMAL",
            "bufferView": 2,
            "byteOffset": 1008,
            "componentType": 5126,
            "count": 28136,
            "max": [
                0.9999541640281676,
                0.9997812509536744,
                0.999927818775177
            ],
            "min": [
                -0.9987682700157166,
                -0.8659290075302124,
                -0.9998964667320252
            ],
            "type": "VEC3"
        },
        {
            "name": "hair_bfShape#1/vertices/POSITION",
            "bufferView": 2,
            "byteOffset": 338640,
            "componentType": 5126,
            "count": 28136,
            "max": [
                10.920083999633788,
                170.26202392578126,
                9.370617866516114
            ],
            "min": [
                -11.35624408721924,
                143.06871032714845,
                -14.247991561889649
            ],
            "type": "VEC3"
        },
        {
            "name": "hair_bfShape#1/vertices/TANGENT",
            "bufferView": 3,
            "byteOffset": 2688,
            "componentType": 5126,
            "count": 28136,
            "max": [
                0.9999639391899108,
                0.9994040727615356,
                0.9999983906745912,
                1.0
            ],
            "min": [
                -0.9999943971633912,
                -0.9804808497428894,
                -0.9999399185180664,
                -1.0
            ],
            "type": "VEC4"
        },
        {
            "name": "hair_bfShape#1/vertices/TEXCOORD_0",
            "bufferView": 1,
            "byteOffset": 676608,
            "componentType": 5126,
            "count": 28136,
            "max": [
                0.8898517489433289,
                1.0010660886764529
            ],
            "min": [
                0.001420226995833218,
                0.0018949509831145409
            ],
            "type": "VEC2"
        },
        {
            "name": "hair_bfShape#1/vertices/TEXCOORD_1",
            "bufferView": 1,
            "byteOffset": 901696,
            "componentType": 5126,
            "count": 28136,
            "max": [
                0.9491029977798462,
                0.49847412109375
            ],
            "min": [
                0.001525879022665322,
                0.013274729251861573
            ],
            "type": "VEC2"
        },
        {
            "name": "hair_bfShape#1/vertices/WEIGHTS_0",
            "bufferView": 3,
            "byteOffset": 452864,
            "componentType": 5126,
            "count": 28136,
            "max": [
                1.0,
                0.5,
                0.3330000042915344,
                0.2439061403274536
            ],
            "min": [
                0.20142468810081486,
                0.0,
                0.0,
                0.0
            ],
            "type": "VEC4"
        },
        {
            "name": "hair_bfShape#1/vertices/WEIGHTS_1",
            "bufferView": 3,
            "byteOffset": 903040,
            "componentType": 5126,
            "count": 28136,
            "max": [
                0.18594062328338624,
                0.11678238958120346,
                0.102682001888752,
                0.0356314592063427
            ],
            "min": [
                0.0,
                0.0,
                0.0,
                0.0
            ],
            "type": "VEC4"
        },
        {
            "name": "hair_bfShape#1/vertices/WEIGHTS_2",
            "bufferView": 3,
            "byteOffset": 1353216,
            "componentType": 5126,
            "count": 28136,
            "max": [
                0.001464048051275313,
                0.0,
                0.0,
                0.0
            ],
            "min": [
                0.0,
                0.0,
                0.0,
                0.0
            ],
            "type": "VEC4"
        },
        {
            "name": "hair_bfShape/skin/IBM",
            "bufferView": 4,
            "byteOffset": 0,
            "componentType": 5126,
            "count": 98,
            "max": [
                0.5407075881958008,
                0.9600563049316406,
                1.0,
                0.0,
                0.9999879598617554,
                0.4794917106628418,
                0.4600499570369721,
                0.0,
                0.3422616422176361,
                0.9999879598617554,
                0.9610549211502076,
                0.0,
                156.97669982910157,
                82.46253967285156,
                52.71973419189453,
                1.0
            ],
            "min": [
                -0.4792610704898834,
                -0.9724699854850768,
                -0.9370127320289612,
                0.0,
                -0.9994547367095948,
                -0.5885362029075623,
                -0.3274611830711365,
                0.0,
                -0.4215439558029175,
                -0.9993609189987184,
                -0.9754014015197754,
                0.0,
                -152.2132110595703,
                -83.86394500732422,
                -73.51127624511719,
                1.0
            ],
            "type": "MAT4"
        },
        {
            "name": "clip/anim/frames",
            "bufferView": 5,
            "byteOffset": 0,
            "componentType": 5126,
            "count": 1501,
            "max": [
                62.5
            ],
            "min": [
                0.0
            ],
            "type": "SCALAR"
        },
        {
            "name": "neck/anim/clip/T",
            "bufferView": 6,
            "byteOffset": 0,
            "componentType": 5126,
            "count": 1501,
            "max": [
                11.625482559204102,
                0.0,
                0.0
            ],
            "min": [
                11.600000381469729,
                0.0,
                -0.033124491572380069
            ],
            "type": "VEC3"
        },
        {
            "name": "neck/anim/clip/R",
            "bufferView": 7,
            "byteOffset": 0,
            "componentType": 5126,
            "count": 1501,
            "max": [
                0.0,
                0.1322563886642456,
                0.0,
                0.9933727383613586
            ],
            "min": [
                0.0,
                0.11493714898824692,
                0.0,
                0.9912155270576476
            ],
            "type": "VEC4"
        },
        {
            "name": "neck1/anim/clip/T",
            "bufferView": 6,
            "byteOffset": 18012,
            "componentType": 5126,
            "count": 1501,
            "max": [
                4.763401508331299,
                0.0017227589851245285,
                0.019359886646270753
            ],
            "min": [
                4.702194213867188,
                -0.0017227589851245285,
                -0.006671445909887552
            ],
            "type": "VEC3"
        },
        {
            "name": "neck1/anim/clip/R",
            "bufferView": 7,
            "byteOffset": 24016,
            "componentType": 5126,
            "count": 1501,
            "max": [
                0.0016800500452518464,
                0.017452405765652658,
                0.008563284762203694,
                1.0
            ],
            "min": [
                -0.0016800500452518464,
                -0.04361938685178757,
                -0.008563284762203694,
                0.9990482330322266
            ],
            "type": "VEC4"
        },
        {
            "name": "head/anim/clip/T",
            "bufferView": 6,
            "byteOffset": 36024,
            "componentType": 5126,
            "count": 1501,
            "max": [
                5.731359958648682,
                0.12362321466207504,
                0.349791556596756
            ],
            "min": [
                5.6446638107299809,
                -0.12362321466207504,
                -0.2576133906841278
            ],
            "type": "VEC3"
        },
        {
            "name": "head/anim/clip/R",
            "bufferView": 7,
            "byteOffset": 48032,
            "componentType": 5126,
            "count": 1501,
            "max": [
                0.002599888015538454,
                -0.04187565296888352,
                0.026047518476843839,
                0.9991228580474854
            ],
            "min": [
                -0.002599888015538454,
                -0.1633259654045105,
                -0.026047518476843839,
                0.9865721464157105
            ],
            "type": "VEC4"
        }
    ],
    "bufferViews": [
        {
            "name": "lowpoly/data/indices-2",
            "buffer": 0,
            "byteOffset": 3744808,
            "byteLength": 159108,
            "target": 34963
        },
        {
            "name": "lowpoly/data/vertices-8",
            "buffer": 0,
            "byteOffset": 2612020,
            "byteLength": 1126784,
            "byteStride": 8,
            "target": 34962
        },
        {
            "name": "lowpoly/data/vertices-12",
            "buffer": 0,
            "byteOffset": 1935748,
            "byteLength": 676272,
            "byteStride": 12,
            "target": 34962
        },
        {
            "name": "lowpoly/data/vertices-16",
            "buffer": 0,
            "byteOffset": 78320,
            "byteLength": 1803392,
            "byteStride": 16,
            "target": 34962
        },
        {
            "name": "lowpoly/data/generic-64",
            "buffer": 0,
            "byteOffset": 0,
            "byteLength": 6272
        },
        {
            "name": "lowpoly/data/generic-4",
            "buffer": 0,
            "byteOffset": 3738804,
            "byteLength": 6004
        },
        {
            "name": "lowpoly/data/generic-12",
            "buffer": 0,
            "byteOffset": 1881712,
            "byteLength": 54036
        },
        {
            "name": "lowpoly/data/generic-16",
            "buffer": 0,
            "byteOffset": 6272,
            "byteLength": 72048
        }
    ],
    "buffers": [
        {
            "name": "lowpoly/data",
            "byteLength": 3903916,
            "uri": "lowpoly0.bin"
        }
    ]
}
