{
  "accessors": [
    {
      "bufferView": 0,
      "componentType": 5126,
      "count": 3,
      "type": "MAT4"
    },
    {
      "bufferView": 1,
      "componentType": 5125,
      "count": 24,
      "type": "SCALAR"
    },
    {
      "bufferView": 2,
      "componentType": 5126,
      "count": 10,
      "max": [
        0.5,
        2.0,
        0.0
      ],
      "min": [
        -0.5,
        0.0,
        0.0
      ],
      "type": "VEC3"
    },
    {
      "bufferView": 3,
      "byteOffset": 24,
      "componentType": 5126,
      "count": 10,
      "type": "VEC4"
    },
    {
      "bufferView": 4,
      "byteOffset": 40,
      "componentType": 5126,
      "count": 10,
      "type": "VEC2"
    },
    {
      "bufferView": 5,
      "byteOffset": 12,
      "componentType": 5126,
      "count": 10,
      "type": "VEC3"
    },
    {
      "bufferView": 6,
      "byteOffset": 48,
      "componentType": 5123,
      "count": 10,
      "type": "VEC4"
    },
    {
      "bufferView": 7,
      "byteOffset": 56,
      "componentType": 5126,
      "count": 10,
      "type": "VEC4"
    },
    {
      "bufferView": 8,
      "componentType": 5126,
      "count": 165,
      "max": [
        5.466667175292969
      ],
      "min": [
        0.0
      ],
      "type": "SCALAR"
    },
    {
      "bufferView": 8,
      "byteOffset": 4,
      "componentType": 5126,
      "count": 165,
      "type": "VEC4"
    },
    {
      "bufferView": 8,
      "byteOffset": 20,
      "componentType": 5126,
      "count": 165,
      "type": "VEC3"
    }
  ],
  "animations": [
    {
      "channels": [
        {
          "sampler": 0,
          "target": {
            "node": 2,
            "path": "rotation"
          }
        },
        {
          "sampler": 1,
          "target": {
            "node": 2,
            "path": "scale"
          }
        }
      ],
      "samplers": [
        {
          "input": 8,
          "interpolation": "LINEAR",
          "output": 9
        },
        {
          "input": 8,
          "interpolation": "LINEAR",
          "output": 10
        }
      ]
    }
  ],
  "asset": {
    "version": "2.0"
  },
  "bufferViews": [
    {
      "buffer": 0,
      "byteLength": 192
    },
    {
      "buffer": 1,
      "byteLength": 96,
      "target": 34963
    },
    {
      "buffer": 2,
      "byteLength": 720,
      "byteStride": 72,
      "target": 34962
    },
    {
      "buffer": 2,
      "byteLength": 720,
      "byteStride": 72,
      "target": 34962
    },
    {
      "buffer": 2,
      "byteLength": 720,
      "byteStride": 72,
      "target": 34962
    },
    {
      "buffer": 2,
      "byteLength": 720,
      "byteStride": 72,
      "target": 34962
    },
    {
      "buffer": 2,
      "byteLength": 720,
      "byteStride": 72,
      "target": 34962
    },
    {
      "buffer": 2,
      "byteLength": 720,
      "byteStride": 72,
      "target": 34962
    },
    {
      "buffer": 3,
      "byteLength": 5280,
      "byteStride": 32,
      "target": 34962
    }
  ],
  "buffers": [
    {
      "byteLength": 192,
      "name": "SkinBuffer",
      "uri": "data:application/octet-stream;base64,"
    },
    {
      "byteLength": 96,
      "name": "IndexBuffer",
      "uri": "data:application/octet-stream;base64,"
    },
    {
      "byteLength": 720,
      "name": "VertexBuffer",
      "uri": "data:application/octet-stream;base64,"
    },
    {
      "byteLength": 5280,
      "uri": "data:application/octet-stream;base64,"
    }
  ],
  "meshes": [
    {
      "name": "mesh_0",
      "primitives": [
        {
          "attributes": {
            "COLOR_0": 3,
            "JOINTS_0": 6,
            "NORMAL": 5,
            "POSITION": 2,
            "TEXCOORD_0": 4,
            "WEIGHTS_0": 7
          },
          "indices": 1,
          "mode": 4
        }
      ]
    }
  ],
  "nodes": [
    {
      "mesh": 0,
      "name": "mesh_0",
      "skin": 0
    },
    {
      "children": [
        2
      ],
      "name": "bone_1",
      "translation": [
        0.0,
        1.0,
        0.0
      ]
    },
    {
      "name": "bone_2"
    },
    {
      "name": "bone_3"
    }
  ],
  "scene": 0,
  "scenes": [
    {
      "nodes": [
        0,
        1,
        3
      ]
    }
  ],
  "skins": [
    {
      "inverseBindMatrices": 0,
      "joints": [
        3,
        1,
        2
      ],
      "name": "mesh_0",
      "0skeleton": -1
    }
  ]
}
