{
  "accessors": [
    {
      "bufferView": 0,
      "componentType": 5125,
      "count": 120,
      "max": [
        41.0
      ],
      "min": [
        0.0
      ],
      "type": "SCALAR"
    },
    {
      "bufferView": 1,
      "componentType": 5126,
      "count": 42,
      "max": [
        7.569169998168945,
        158.69000244140625,
        0.8566960096359253
      ],
      "min": [
        6.6432600021362305,
        151.98899841308594,
        -3.55295991897583
      ],
      "type": "VEC3"
    },
    {
      "bufferView": 2,
      "componentType": 5126,
      "count": 42,
      "max": [
        0.980184018611908,
        0.3233279883861542,
        0.4895069897174835
      ],
      "min": [
        0.8707389831542969,
        -0.3086549937725067,
        -0.2010059952735901
      ],
      "type": "VEC3"
    },
    {
      "bufferView": 3,
      "componentType": 5126,
      "count": 42,
      "max": [
        0.7207019925117493,
        0.8640819787979126
      ],
      "min": [
        0.7156370282173157,
        0.8067020177841187
      ],
      "type": "VEC2"
    },
    {
      "bufferView": 4,
      "componentType": 5123,
      "count": 42,
      "max": [
        0.0,
        74.0,
        73.0,
        75.0
      ],
      "min": [
        0.0,
        0.0,
        0.0,
        0.0
      ],
      "type": "VEC4"
    },
    {
      "bufferView": 5,
      "componentType": 5123,
      "count": 42,
      "max": [
        68.0,
        78.0,
        70.0,
        0.0
      ],
      "min": [
        0.0,
        0.0,
        0.0,
        0.0
      ],
      "type": "VEC4"
    },
    {
      "bufferView": 6,
      "componentType": 5123,
      "count": 42,
      "max": [
        0.0,
        0.0,
        0.0,
        0.0
      ],
      "min": [
        0.0,
        0.0,
        0.0,
        0.0
      ],
      "type": "VEC4"
    },
    {
      "bufferView": 7,
      "componentType": 5126,
      "count": 42,
      "max": [
        1.0,
        0.02313319966197014,
        0.01985890045762062,
        0.005621309857815504
      ],
      "min": [
        0.9537339806556702,
        0.0,
        0.0,
        0.0
      ],
      "type": "VEC4"
    },
    {
      "bufferView": 8,
      "componentType": 5126,
      "count": 42,
      "max": [
        0.0003756110090762377,
        0.0002766030083876103,
        2.8980000479350565e-06,
        0.0
      ],
      "min": [
        0.0,
        0.0,
        0.0,
        0.0
      ],
      "type": "VEC4"
    },
    {
      "bufferView": 9,
      "componentType": 5126,
      "count": 42,
      "max": [
        0.0,
        0.0,
        0.0,
        0.0
      ],
      "min": [
        0.0,
        0.0,
        0.0,
        0.0
      ],
      "type": "VEC4"
    }
  ],
  "asset": {
    "generator": "mesh-modify",
    "version": "2.0"
  },
  "bufferViews": [
    {
      "buffer": 0,
      "byteLength": 480,
      "target": 34963
    },
    {
      "buffer": 0,
      "byteLength": 504,
      "byteOffset": 480,
      "target": 34962
    },
    {
      "buffer": 0,
      "byteLength": 504,
      "byteOffset": 984,
      "target": 34962
    },
    {
      "buffer": 0,
      "byteLength": 336,
      "byteOffset": 1488,
      "target": 34962
    },
    {
      "buffer": 0,
      "byteLength": 336,
      "byteOffset": 1824,
      "target": 34962
    },
    {
      "buffer": 0,
      "byteLength": 336,
      "byteOffset": 2160,
      "target": 34962
    },
    {
      "buffer": 0,
      "byteLength": 336,
      "byteOffset": 2496,
      "target": 34962
    },
    {
      "buffer": 0,
      "byteLength": 672,
      "byteOffset": 2832,
      "target": 34962
    },
    {
      "buffer": 0,
      "byteLength": 672,
      "byteOffset": 3504,
      "target": 34962
    },
    {
      "buffer": 0,
      "byteLength": 672,
      "byteOffset": 4176,
      "target": 34962
    }
  ],
  "buffers": [
    {
      "byteLength": 4848,
      "name": "bufffer0",
      "uri": "output.bin"
    }
  ],
  "meshes": [
    {
      "name": "hair_bfShape_0.obj",
      "primitives": [
        {
          "attributes": {
            "JOINTS_0": 4,
            "JOINTS_1": 5,
            "JOINTS_2": 6,
            "NORMAL": 2,
            "POSITION": 1,
            "TEXCOORD_0": 3,
            "WEIGHTS_0": 7,
            "WEIGHTS_1": 8,
            "WEIGHTS_2": 9
          },
          "indices": 0,
          "mode": 4
        }
      ]
    }
  ],
  "nodes": [
    {
      "mesh": 0,
      "name": "mesh"
    }
  ],
  "scene": 0,
  "scenes": [
    {
      "nodes": [
        0
      ]
    }
  ]
}
